<mxfile host="app.diagrams.net" modified="2023-08-27T10:24:48.294Z" agent="Mozilla/5.0 (Windows NT 10.0; Win64; x64) AppleWebKit/537.36 (KHTML, like Gecko) Chrome/116.0.0.0 Safari/537.36" version="21.6.9" etag="ngFlhLMIy6mGqoDFXU7P" type="github">
  <diagram name="第 1 页" id="T2-1o2T3ynAcAO4S0hfq">
    <mxGraphModel>
      <root>
        <mxCell id="0" />
        <mxCell id="1" parent="0" />
      </root>
    </mxGraphModel>
  </diagram>
</mxfile>
